<svg width="221" height="73" viewBox="0 0 221 73" fill="none" xmlns="http://www.w3.org/2000/svg">
<path d="M98.3563 42.272C99.1629 42.272 99.9183 42.1033 100.622 41.766C101.326 41.4287 101.95 40.9447 102.492 40.314L104.582 42.382C103.849 43.2473 102.91 43.9367 101.766 44.45C100.637 44.9633 99.4709 45.22 98.2683 45.22C97.1096 45.22 96.0243 45.0147 95.0123 44.604C94.0149 44.1933 93.1496 43.636 92.4163 42.932C91.6829 42.228 91.1036 41.392 90.6783 40.424C90.2676 39.456 90.0623 38.4147 90.0623 37.3C90.0623 36.1853 90.2749 35.144 90.7003 34.176C91.1256 33.1933 91.7049 32.35 92.4383 31.646C93.1716 30.942 94.0369 30.3847 95.0343 29.974C96.0463 29.5633 97.1243 29.358 98.2683 29.358C99.5003 29.358 100.696 29.622 101.854 30.15C103.013 30.6633 103.952 31.36 104.67 32.24L102.514 34.374C101.972 33.6993 101.334 33.186 100.6 32.834C99.8669 32.4673 99.0896 32.284 98.2683 32.284C97.5789 32.284 96.9263 32.416 96.3103 32.68C95.7089 32.9293 95.1883 33.2813 94.7483 33.736C94.3083 34.176 93.9636 34.704 93.7143 35.32C93.4649 35.9213 93.3403 36.5813 93.3403 37.3C93.3403 38.004 93.4649 38.664 93.7143 39.28C93.9783 39.8813 94.3303 40.402 94.7703 40.842C95.2249 41.282 95.7529 41.634 96.3543 41.898C96.9703 42.1473 97.6376 42.272 98.3563 42.272ZM121.726 37.3C121.726 38.4 121.513 39.4413 121.088 40.424C120.662 41.392 120.083 42.2353 119.35 42.954C118.631 43.658 117.773 44.2153 116.776 44.626C115.778 45.0367 114.708 45.242 113.564 45.242C112.434 45.242 111.371 45.0367 110.374 44.626C109.376 44.2153 108.511 43.658 107.778 42.954C107.059 42.2353 106.487 41.392 106.062 40.424C105.636 39.4413 105.424 38.4 105.424 37.3C105.424 36.2 105.636 35.166 106.062 34.198C106.487 33.2153 107.059 32.372 107.778 31.668C108.511 30.9493 109.376 30.3847 110.374 29.974C111.371 29.5633 112.434 29.358 113.564 29.358C114.708 29.358 115.778 29.5633 116.776 29.974C117.773 30.3847 118.631 30.9493 119.35 31.668C120.083 32.372 120.662 33.2153 121.088 34.198C121.513 35.166 121.726 36.2 121.726 37.3ZM118.448 37.3C118.448 36.5813 118.323 35.9213 118.074 35.32C117.824 34.704 117.48 34.176 117.04 33.736C116.614 33.2813 116.101 32.9293 115.5 32.68C114.898 32.416 114.253 32.284 113.564 32.284C112.874 32.284 112.229 32.416 111.628 32.68C111.041 32.9293 110.528 33.2813 110.088 33.736C109.662 34.176 109.325 34.704 109.076 35.32C108.826 35.9213 108.702 36.5813 108.702 37.3C108.702 38.004 108.826 38.664 109.076 39.28C109.325 39.896 109.662 40.4313 110.088 40.886C110.528 41.326 111.041 41.678 111.628 41.942C112.229 42.1913 112.874 42.316 113.564 42.316C114.253 42.316 114.898 42.1913 115.5 41.942C116.101 41.678 116.614 41.326 117.04 40.886C117.48 40.4313 117.824 39.896 118.074 39.28C118.323 38.664 118.448 38.004 118.448 37.3ZM127.829 45L121.581 29.6H125.035L129.743 41.766L134.561 29.6H137.861L131.525 45H127.829ZM139.168 45V29.6H142.358V45H139.168ZM145.162 45V29.6H151.08C152.224 29.6 153.295 29.798 154.292 30.194C155.289 30.59 156.147 31.1327 156.866 31.822C157.599 32.5113 158.171 33.3327 158.582 34.286C159.007 35.2393 159.22 36.2587 159.22 37.344C159.22 38.4147 159.007 39.4193 158.582 40.358C158.171 41.2967 157.599 42.1107 156.866 42.8C156.147 43.4747 155.289 44.01 154.292 44.406C153.295 44.802 152.224 45 151.08 45H145.162ZM151.058 32.438H148.352V42.162H151.058C151.733 42.162 152.363 42.0373 152.95 41.788C153.551 41.5387 154.072 41.2013 154.512 40.776C154.952 40.336 155.297 39.8227 155.546 39.236C155.795 38.6493 155.92 38.0187 155.92 37.344C155.92 36.6547 155.795 36.0093 155.546 35.408C155.297 34.8067 154.952 34.286 154.512 33.846C154.072 33.406 153.551 33.0613 152.95 32.812C152.363 32.5627 151.733 32.438 151.058 32.438ZM165.346 37.454H173.618V40.006H165.346V37.454ZM185.458 29.6V45H182.444V32.658L179.43 33.89V31.272L183.544 29.6H185.458ZM193.105 29.336C194.117 29.336 195.041 29.5267 195.877 29.908C196.713 30.2747 197.425 30.7953 198.011 31.47C198.613 32.13 199.075 32.9293 199.397 33.868C199.735 34.8067 199.903 35.8407 199.903 36.97C199.903 38.202 199.72 39.3313 199.353 40.358C198.987 41.37 198.473 42.2353 197.813 42.954C197.153 43.6727 196.354 44.23 195.415 44.626C194.477 45.022 193.443 45.22 192.313 45.22C191.477 45.22 190.649 45.088 189.827 44.824C189.006 44.5453 188.317 44.1787 187.759 43.724L189.475 41.568C189.93 41.92 190.407 42.1767 190.905 42.338C191.404 42.4993 191.947 42.58 192.533 42.58C193.853 42.58 194.887 42.1327 195.635 41.238C196.398 40.3287 196.816 39.0453 196.889 37.388C196.391 37.9453 195.775 38.3853 195.041 38.708C194.308 39.016 193.531 39.17 192.709 39.17C191.932 39.17 191.213 39.0527 190.553 38.818C189.893 38.5833 189.321 38.2607 188.837 37.85C188.368 37.4247 188.001 36.926 187.737 36.354C187.473 35.7673 187.341 35.1293 187.341 34.44C187.341 33.7067 187.488 33.032 187.781 32.416C188.075 31.7853 188.471 31.2427 188.969 30.788C189.483 30.3333 190.091 29.9813 190.795 29.732C191.514 29.468 192.284 29.336 193.105 29.336ZM193.193 36.794C193.883 36.794 194.521 36.6473 195.107 36.354C195.709 36.0607 196.244 35.6427 196.713 35.1C196.479 34.132 196.053 33.3547 195.437 32.768C194.821 32.1813 194.088 31.888 193.237 31.888C192.401 31.888 191.697 32.1227 191.125 32.592C190.568 33.0613 190.289 33.6553 190.289 34.374C190.289 35.0927 190.561 35.6793 191.103 36.134C191.646 36.574 192.343 36.794 193.193 36.794Z" fill="#035755"/>
<path d="M52.1431 36.4549C52.1431 37.6702 53.1282 38.6554 54.3436 38.6554H59.3482C61.8959 38.6554 64.4129 39.2394 66.6875 40.3871C67.3656 40.7293 68.1445 40.9008 68.9679 40.8459C71.1495 40.7002 72.9182 38.9259 73.0574 36.7438C73.2209 34.1822 71.1921 32.054 68.6656 32.054C67.9812 32.054 67.3334 32.2102 66.756 32.489C64.4382 33.608 61.9211 34.2545 59.3473 34.2545H54.3436C53.1283 34.2544 52.1431 35.2396 52.1431 36.4549Z" fill="#FC312F"/>
<path d="M22.3247 50.7418C21.6142 50.0314 20.4623 50.0314 19.7519 50.7418L16.8261 53.6676C15.3367 55.157 13.5239 56.287 11.5233 56.9458C10.9268 57.1422 10.3711 57.4972 9.92201 58.0107C8.73181 59.3712 8.73509 61.4425 9.92927 62.7996C11.3312 64.3928 13.7615 64.4509 15.2385 62.9739C15.6385 62.5739 15.9258 62.1038 16.1006 61.6033C16.8013 59.5941 17.895 57.7447 19.3996 56.2401L22.3248 53.3149C23.0351 52.6042 23.0351 51.4523 22.3247 50.7418Z" fill="#FC312F"/>
<path d="M48.7141 24.3537C49.4576 25.0972 50.6629 25.0972 51.4064 24.3537L54.468 21.2922C56.0266 19.7336 57.9236 18.5512 60.017 17.8617C60.6412 17.6561 61.2227 17.2847 61.6927 16.7473C62.9381 15.3235 62.9347 13.1562 61.685 11.7361C60.2179 10.069 57.6748 10.0082 56.1293 11.5537C55.7106 11.9724 55.41 12.4642 55.2272 12.988C54.4938 15.0904 53.3495 17.0257 51.7751 18.6002L48.714 21.6613C47.9706 22.4049 47.9706 23.6102 48.7141 24.3537Z" fill="#FC312F"/>
<path d="M36.611 51.9863C35.3958 51.9863 34.4105 52.9715 34.4105 54.1869V59.1915C34.4105 61.7392 33.8265 64.2561 32.6789 66.5307C32.3367 67.2088 32.1651 67.9878 32.2201 68.8111C32.3657 70.9928 34.1401 72.7614 36.3221 72.9007C38.8838 73.0641 41.012 71.0353 41.012 68.5088C41.012 67.8244 40.8558 67.1767 40.5769 66.5992C39.4579 64.2815 38.8114 61.7644 38.8114 59.1906V54.1869C38.8116 52.9716 37.8263 51.9863 36.611 51.9863Z" fill="#FFA2A1"/>
<path d="M40.5797 66.5994C39.4607 64.2816 38.8142 61.7645 38.8142 59.1908V54.1869C38.8142 52.9716 37.829 51.9863 36.6136 51.9863C35.3982 51.9863 34.4131 52.9715 34.4131 54.1869V59.1908C34.4131 61.7645 35.0596 64.2815 36.1786 66.5994C36.4574 67.1768 36.6136 67.8246 36.6136 68.509C36.6136 70.1367 35.7296 71.5567 34.4162 72.3181C34.986 72.6495 35.6349 72.8568 36.3248 72.9008C38.8865 73.0643 41.0147 71.0355 41.0147 68.509C41.0147 67.8246 40.8585 67.1768 40.5797 66.5994Z" fill="#FC312F"/>
<path d="M20.19 27.3669C24.16 27.3669 27.3784 24.1486 27.3784 20.1786C27.3784 16.2086 24.16 12.9902 20.19 12.9902C16.22 12.9902 13.0017 16.2086 13.0017 20.1786C13.0017 24.1486 16.22 27.3669 20.19 27.3669Z" fill="#FF807E"/>
<path d="M20.1876 12.9902C19.4199 12.9902 18.6808 13.1118 17.9871 13.3347C20.8804 14.2643 22.9748 16.9764 22.9748 20.1786C22.9748 23.3808 20.8804 26.0928 17.9871 27.0224C18.6807 27.2453 19.4198 27.3669 20.1876 27.3669C24.1576 27.3669 27.3759 24.1486 27.3759 20.1786C27.3759 16.2085 24.1575 12.9902 20.1876 12.9902Z" fill="#FC312F"/>
<path d="M36.6127 59.927C49.5759 59.927 60.0847 49.4182 60.0847 36.4549C60.0847 23.4917 49.5759 12.9829 36.6127 12.9829C23.6494 12.9829 13.1406 23.4917 13.1406 36.4549C13.1406 49.4182 23.6494 59.927 36.6127 59.927Z" fill="#FFBFBE"/>
<path d="M36.6136 12.9829C35.8714 12.9829 35.1378 13.0189 34.4131 13.0864C46.3443 14.196 55.6847 24.234 55.6847 36.4549C55.6847 48.6759 46.3444 58.7138 34.4132 59.8234C35.1378 59.8908 35.8716 59.927 36.6138 59.927C49.5771 59.927 60.0858 49.4183 60.0858 36.4549C60.0858 23.4916 49.5769 12.9829 36.6136 12.9829Z" fill="#FFA2A2"/>
<path d="M45.4121 33.1994C48.0453 33.1994 50.1799 31.0648 50.1799 28.4316C50.1799 25.7984 48.0453 23.6638 45.4121 23.6638C42.7789 23.6638 40.6443 25.7984 40.6443 28.4316C40.6443 31.0648 42.7789 33.1994 45.4121 33.1994Z" fill="#FFA2A1"/>
<path d="M45.4154 23.6638C44.6214 23.6638 43.8733 23.8591 43.2148 24.2024C44.7401 24.9977 45.7821 26.5925 45.7821 28.4316C45.7821 30.2707 44.7401 31.8656 43.2148 32.6608C43.8733 33.0041 44.6214 33.1994 45.4154 33.1994C48.0486 33.1994 50.1832 31.0648 50.1832 28.4316C50.1832 25.7984 48.0486 23.6638 45.4154 23.6638Z" fill="#FF807E"/>
<path d="M28.2201 48.8515C30.0025 48.8515 31.4475 47.4066 31.4475 45.6241C31.4475 43.8417 30.0025 42.3967 28.2201 42.3967C26.4376 42.3967 24.9927 43.8417 24.9927 45.6241C24.9927 47.4066 26.4376 48.8515 28.2201 48.8515Z" fill="#FF807E"/>
<path d="M52.5804 58.264C55.011 58.264 56.9813 56.2937 56.9813 53.8631C56.9813 51.4325 55.011 49.4622 52.5804 49.4622C50.1498 49.4622 48.1794 51.4325 48.1794 53.8631C48.1794 56.2937 50.1498 58.264 52.5804 58.264Z" fill="#FC312F"/>
<path d="M52.5809 49.4622C51.7791 49.4622 51.0279 49.6778 50.3804 50.0524C51.6955 50.8134 52.5809 52.2344 52.5809 53.8632C52.5809 55.492 51.6955 56.9129 50.3804 57.6741C51.0279 58.0487 51.7791 58.2643 52.5809 58.2643C55.0116 58.2643 56.9819 56.2939 56.9819 53.8634C56.9819 51.4329 55.0116 49.4622 52.5809 49.4622Z" fill="#FF807E"/>
<path d="M21.0808 36.4549C21.0808 37.6702 20.0957 38.6554 18.8803 38.6554H13.8757C11.3279 38.6554 8.81099 39.2394 6.5364 40.3871C5.85828 40.7293 5.07934 40.9008 4.25597 40.8459C2.07437 40.7002 0.305729 38.9259 0.166459 36.7438C0.00298141 34.1822 2.03179 32.054 4.55829 32.054C5.24267 32.054 5.89046 32.2102 6.4679 32.489C8.78564 33.608 11.3027 34.2545 13.8765 34.2545H18.8804C20.0955 34.2544 21.0808 35.2396 21.0808 36.4549Z" fill="#FC312F"/>
<path d="M36.6109 20.9236C37.8262 20.9236 38.8115 19.9384 38.8115 18.723V13.7184C38.8115 11.1707 39.3954 8.65376 40.5431 6.37917C40.8853 5.70105 41.0568 4.92211 41.0019 4.09874C40.8562 1.91714 39.0819 0.148502 36.8998 0.00923265C34.3382 -0.154245 32.21 1.87456 32.21 4.40106C32.21 5.08545 32.3662 5.73323 32.645 6.31068C33.764 8.62842 34.4105 11.1455 34.4105 13.7193V18.7232C34.4104 19.9383 35.3956 20.9236 36.6109 20.9236Z" fill="#FFA2A1"/>
<path d="M41.0035 4.09873C40.8578 1.91713 39.0834 0.14849 36.9014 0.00922096C35.99 -0.0490216 35.1343 0.171417 34.4089 0.591931C35.6413 1.30864 36.5027 2.60692 36.6024 4.09873C36.6573 4.9221 36.4857 5.70104 36.1435 6.37916C34.9959 8.65375 34.4119 11.1707 34.4119 13.7184V18.723C34.4119 19.9383 35.3971 20.9236 36.6125 20.9236C37.8279 20.9236 38.813 19.9384 38.813 18.723V13.7184C38.813 11.1707 39.397 8.65375 40.5446 6.37916C40.8868 5.70104 41.0586 4.9221 41.0035 4.09873Z" fill="#FC312F"/>
<path d="M68.6699 32.0564C67.9859 32.0564 67.3385 32.2125 66.7614 32.4912C66.6593 32.5404 66.5562 32.5877 66.4534 32.6351C67.8549 33.4374 68.7727 34.9886 68.6606 36.7436C68.5648 38.2445 67.6975 39.5522 66.4554 40.2693C66.5345 40.3076 66.6141 40.3451 66.6927 40.3847C67.3706 40.7266 68.149 40.8982 68.9719 40.8432C71.1522 40.6975 72.9198 38.9243 73.059 36.7436C73.2224 34.1833 71.1948 32.0564 68.6699 32.0564Z" fill="#FF807E"/>
</svg>
