<svg width="287" height="297" viewBox="0 0 287 297" fill="none" xmlns="http://www.w3.org/2000/svg">
<g filter="url(#filter0_d)">
<path d="M272.935 139.426C268.488 139.294 264.656 142.783 263.568 147.578C256.684 148.124 248.819 148.31 240.185 147.754C235.383 147.436 230.817 146.923 226.548 146.288C226.571 145.449 226.583 144.601 226.583 143.754C226.583 139.63 226.287 135.577 225.743 131.611C227.92 129.906 230.64 128.114 233.94 126.578C239.653 123.893 244.999 122.94 249.126 122.666C251.149 127.372 255.797 130.11 260.244 128.918C265.259 127.576 268.133 121.773 266.643 115.955C265.165 110.135 259.913 106.497 254.898 107.838C250.333 109.066 247.542 113.994 248.204 119.266C244.597 121.368 239.227 123.646 232.58 123.813C229.303 123.902 226.429 123.451 224.099 122.87C222.621 116.713 220.504 110.815 217.795 105.252C220.658 102.603 224.04 99.7939 228.002 97.0824C233.739 93.1446 239.274 90.3276 244.135 88.3046C247.305 92.1028 252.355 93.3656 256.258 91.0525C260.741 88.4017 261.995 82.0171 259.073 76.8067C256.152 71.5975 250.132 69.5308 245.649 72.1888C241.758 74.4935 240.291 79.6152 241.9 84.3314C237.725 87.6512 232.592 91.1568 226.429 94.2835C222.242 96.4206 218.233 98.0454 214.602 99.2815C211.633 94.1864 208.168 89.435 204.265 85.0989C205.767 79.5181 208.298 73.0012 212.615 66.466C216.672 60.3558 221.166 55.8958 224.986 52.7606C229.197 55.4368 234.496 55.0216 237.512 51.4978C240.942 47.5065 240.161 41.0515 235.749 37.0784C231.361 33.0956 225.022 33.1028 221.604 37.0953C218.588 40.6191 218.824 46.0505 221.959 50.0139C219.487 54.2006 215.749 59.3929 210.261 64.3386C204.205 69.7955 198.126 73.0631 193.49 75.0059C188.215 70.8641 182.467 67.3488 176.328 64.5681C177.215 62.0327 178.398 59.4815 179.947 56.9741C181.189 54.9863 182.526 53.2378 183.874 51.7103C188.546 53.6616 193.785 52.2579 196.139 48.1695C198.789 43.6038 196.849 37.4038 191.81 34.3317C186.772 31.2584 180.55 32.4677 177.901 37.0419C175.583 41.0611 176.801 46.3407 180.55 49.6435C179.77 51.7636 178.824 53.9627 177.688 56.2043C176.399 58.7833 175.003 61.1597 173.525 63.3575C172.898 63.1013 172.283 62.8548 171.656 62.6253C164.347 59.8167 156.552 58.0426 148.427 57.4415C147.09 53.7501 145.931 49.6593 145.115 45.1665C143.459 35.9988 143.767 28.0199 144.536 22.0275C149.314 21.0877 152.886 17.2385 152.886 12.6255C152.886 7.30949 148.143 3 142.288 3C136.422 3 131.667 7.30949 131.667 12.6255C131.667 17.3175 135.369 21.2201 140.266 22.0725C141.33 27.9787 142.028 36.2453 140.396 45.8283C139.663 50.0467 138.586 53.8911 137.333 57.3712C129.538 57.8217 122.051 59.3649 114.979 61.8518C113.997 60.2465 113.11 58.5611 112.317 56.5734C110.756 52.6367 110.082 48.9478 109.81 45.877C114.387 43.4302 116.741 38.2974 115.132 33.7573C113.358 28.7642 107.456 26.388 101.945 28.4523C96.4448 30.5165 93.417 36.2368 95.203 41.2311C96.7405 45.5393 101.341 47.8913 106.108 47.13C107.504 50.0697 108.84 53.4587 109.881 57.3092C110.449 59.3479 110.863 61.3418 111.182 63.2919C104.76 65.9038 98.7394 69.3098 93.2042 73.3861C90.2946 71.2235 87.314 68.7136 84.369 65.7726C77.5918 59.0007 73.0736 52.0551 70.1049 46.4925C73.393 42.7574 73.9726 37.4098 71.2167 33.7258C68.0588 29.5098 61.7311 29.0654 57.0828 32.7312C52.4465 36.3983 51.2401 42.7866 54.3862 47.0013C57.1893 50.7255 62.4407 51.5002 66.8406 49.1008C71.1221 53.0435 76.6929 59.2617 80.9981 68.2012C82.9733 72.2896 84.3453 76.2651 85.3152 79.9723C84.4281 80.8101 83.5292 81.6746 82.6658 82.5562C78.3487 87.004 74.4811 91.9291 71.1694 97.2585C69.2179 96.6817 67.1954 95.9835 65.1256 95.1287C58.3957 92.3468 53.1798 88.8 49.3949 85.7097C51.0035 80.9036 49.4304 75.7186 45.4327 73.4698C40.9028 70.9138 34.9417 73.1189 32.1268 78.3949C29.3 83.6685 30.6957 90.0167 35.2493 92.5715C39.2352 94.8179 44.321 93.3826 47.4079 89.4193C51.997 91.0488 57.7215 93.6631 63.6234 97.9555C65.3857 99.2378 66.9943 100.556 68.4964 101.882C63.8245 110.526 60.5601 120.078 59.0107 130.22C54.9775 130.573 50.6251 130.743 45.9532 130.595C39.2825 130.385 33.2622 129.582 27.9989 128.538C27.8806 123.234 24.427 118.795 19.7433 118.29C14.5865 117.733 9.91466 122.134 9.29963 128.117C8.69642 134.099 12.3748 139.398 17.5198 139.952C22.1088 140.446 26.2958 137.012 27.6086 132.035C33.002 132.147 39.0576 132.642 45.6219 133.802C50.1755 134.604 54.3743 135.628 58.2656 136.766C58.0764 139.069 57.9936 141.398 57.9936 143.754C57.9936 149.348 58.5022 154.818 59.4957 160.122C55.0249 163.157 48.8745 166.598 41.0329 169.014C34.1611 171.133 27.9753 171.854 23.0432 172.01C21.2691 167.294 16.8692 164.351 12.4102 165.234C7.33623 166.242 4.10734 171.846 5.21913 177.752C6.33092 183.66 11.3576 187.63 16.4316 186.622C20.8314 185.751 23.8239 181.444 23.8357 176.477C28.8861 174.792 34.8471 173.21 41.6242 172.18C49.4068 170.997 56.3969 170.827 62.287 171.089C64.6406 178.409 67.9524 185.284 72.0329 191.578C70.105 193.143 67.9642 194.688 65.5395 196.131C60.915 198.897 56.4796 200.618 52.6238 201.73C50.0218 197.457 45.1489 195.451 40.9383 197.197C36.1481 199.194 34.031 205.331 36.2309 210.903C37.6148 214.4 40.3705 216.855 43.422 217.694C45.2198 218.197 47.1241 218.136 48.9101 217.394C49.4305 217.173 49.939 216.899 50.4003 216.572C53.9012 214.19 55.3915 209.25 53.9131 204.538C57.556 202.608 61.8139 200.697 66.7105 199.121C69.8685 198.111 72.8726 197.372 75.6994 196.823C78.2778 200.248 81.1164 203.461 84.1561 206.426C84.44 206.709 84.7356 206.992 85.0195 207.255C82.9615 211.971 79.8626 217.703 75.1908 223.513C70.6135 229.201 65.8589 233.341 61.8493 236.266C57.8398 233.341 52.5765 233.404 49.3476 236.68C45.6574 240.416 46.0123 246.915 50.1401 251.198C54.2442 255.471 60.5838 255.914 64.2622 252.178C67.4674 248.936 67.6211 243.604 64.9008 239.462C68.0469 235.249 72.1511 230.499 77.3907 225.809C83.0325 220.776 88.5914 217.049 93.4407 214.303C99.8512 218.983 106.936 222.771 114.494 225.483C114.198 228.405 113.689 231.557 112.85 234.87C111.028 242.085 108.308 247.869 105.836 252.126C100.975 251.127 96.1728 253.406 94.5288 257.769C92.6718 262.723 95.5933 268.498 101.058 270.67C106.51 272.842 112.448 270.582 114.328 265.619C115.948 261.309 113.961 256.382 109.81 253.749C110.981 248.619 112.838 242.551 115.771 236.034C117.214 232.857 118.74 229.959 120.301 227.32C126.132 228.936 132.199 229.925 138.468 230.199C139.485 235.233 140.313 240.866 140.715 247.021C141.318 256.178 140.834 264.286 139.982 270.979C135.227 271.924 131.667 275.774 131.667 280.376C131.667 285.692 136.41 290 142.288 290C148.143 290 152.886 285.692 152.886 280.376C152.886 275.792 149.349 271.95 144.618 270.987C143.826 264.143 143.4 256.055 143.85 247.021C144.157 240.927 144.831 235.302 145.683 230.216C152.235 229.96 158.587 228.927 164.654 227.204C165.175 228.122 165.683 229.077 166.18 230.058C169.48 236.53 171.254 242.598 172.212 247.453C167.99 249.971 165.837 254.863 167.363 259.226C169.09 264.232 174.98 266.652 180.503 264.638C186.015 262.616 189.09 256.92 187.351 251.913C185.814 247.472 181 245.069 176.08 245.988C173.821 242.005 171.195 235.991 170.284 228.291C170.166 227.337 170.083 226.402 170.036 225.483C176.789 223.081 183.153 219.805 189.007 215.795C192.78 218.947 196.754 222.709 200.705 227.178C206.784 234.048 211.207 240.822 214.401 246.579C211.16 250.306 210.604 255.613 213.336 259.278C216.506 263.49 222.822 263.932 227.47 260.266C232.107 256.603 233.313 250.218 230.167 245.997C227.435 242.358 222.337 241.528 218.008 243.745C213.348 238.896 208.18 232.76 203.2 225.218C199.983 220.343 197.322 215.611 195.134 211.168C197.487 209.216 199.735 207.141 201.887 204.942C205.388 201.339 208.594 197.427 211.432 193.241C216.672 194.743 222.716 196.942 229.126 200.244C235.312 203.416 240.469 206.903 244.62 210.152C243.047 214.869 244.537 219.972 248.441 222.25C252.935 224.891 258.932 222.789 261.841 217.57C264.751 212.343 263.45 205.975 258.955 203.334C255.028 201.031 249.931 202.347 246.785 206.215C242.148 204.403 236.518 201.657 230.687 197.445C224.632 193.074 220.054 188.384 216.743 184.34C218.978 180.031 220.87 175.501 222.384 170.785C224.892 170.873 227.553 171.103 230.297 171.527C237.382 172.622 243.284 174.679 247.825 176.727C247.435 181.762 250.203 186.371 254.591 187.528C259.606 188.853 264.857 185.205 266.324 179.378C267.778 173.55 264.904 167.756 259.878 166.432C255.478 165.265 250.877 167.951 248.831 172.585C244.017 172.18 237.831 171.093 231.078 168.41C228.523 167.385 226.157 166.246 224.005 165.053C225.081 160.683 225.838 156.187 226.228 151.577C230.593 151.216 235.229 150.986 240.114 150.976C248.724 150.951 256.554 151.586 263.426 152.522C264.254 157.371 267.885 161.062 272.32 161.204C277.501 161.353 281.841 156.602 281.995 150.589C282.161 144.576 278.104 139.577 272.935 139.426Z" fill="#128E5A" fill-opacity="0.74"/>
</g>
<defs>
<filter id="filter0_d" x="0" y="0" width="287" height="297" filterUnits="userSpaceOnUse" color-interpolation-filters="sRGB">
<feFlood flood-opacity="0" result="BackgroundImageFix"/>
<feColorMatrix in="SourceAlpha" type="matrix" values="0 0 0 0 0 0 0 0 0 0 0 0 0 0 0 0 0 0 127 0"/>
<feOffset dy="2"/>
<feGaussianBlur stdDeviation="2.5"/>
<feColorMatrix type="matrix" values="0 0 0 0 0 0 0 0 0 0 0 0 0 0 0 0 0 0 0.1 0"/>
<feBlend mode="normal" in2="BackgroundImageFix" result="effect1_dropShadow"/>
<feBlend mode="normal" in="SourceGraphic" in2="effect1_dropShadow" result="shape"/>
</filter>
</defs>
</svg>
