<svg width="406" height="407" viewBox="0 0 406 407" fill="none" xmlns="http://www.w3.org/2000/svg">
<path d="M298.156 111.213C294.635 114.093 294.011 119.351 296.38 123.775C291.431 128.812 285.483 134.228 278.445 139.588C274.525 142.563 270.658 145.229 266.936 147.602C266.393 146.94 265.835 146.279 265.268 145.625C262.508 142.448 259.567 139.522 256.493 136.831C257.032 134.058 257.933 130.853 259.452 127.457C262.066 121.558 265.555 117.239 268.558 114.26C273.27 116.531 278.691 115.524 281.326 111.624C284.3 107.228 282.635 100.829 277.59 97.3437C272.554 93.8498 266.065 94.567 263.091 98.9633C260.388 102.97 261.531 108.639 265.571 112.258C264.192 116.296 261.571 121.652 256.552 126.238C254.082 128.503 251.561 130.083 249.373 131.196C244.112 127.443 238.53 124.317 232.716 121.846C233.152 117.885 233.884 113.453 235.128 108.707C236.921 101.826 239.31 95.9441 241.709 91.1259C246.698 91.9278 251.442 89.5149 252.907 85.1154C254.594 80.0673 251.289 74.3065 245.546 72.2498C239.804 70.194 233.774 72.6376 232.092 77.6914C230.63 82.0764 232.926 87.0068 237.324 89.5628C236.322 94.9204 234.705 101.064 232.041 107.605C230.239 112.059 228.23 115.999 226.254 119.386C220.553 117.45 214.697 116.112 208.782 115.387C206.207 110.079 203.799 103.36 202.758 95.4293C201.801 88.0006 202.286 81.5502 203.137 76.5727C208.179 75.8121 211.992 71.9395 211.962 67.2018C211.939 61.8263 207.016 57.3752 200.951 57.2712C194.898 57.1439 190.009 61.3998 190.042 66.7684C190.072 71.506 193.889 75.5331 198.961 76.486C199.855 81.3699 200.445 87.8771 199.518 95.3679C198.495 103.633 195.988 110.227 193.709 114.833C186.864 115.178 180.074 116.323 173.474 118.295C172.462 115.747 171.668 112.988 171.186 110.017C170.814 107.652 170.676 105.409 170.695 103.327C175.607 101.699 178.713 97.1042 177.794 92.3755C176.784 87.0807 171.137 83.6033 165.191 84.6139C159.244 85.6236 155.25 90.7266 156.266 96.028C157.167 100.68 161.641 103.931 166.745 103.963C167.562 106.12 168.303 108.449 168.927 110.938C169.657 113.79 170.17 116.557 170.5 119.242C169.844 119.465 169.205 119.687 168.567 119.931C161.044 122.667 153.84 126.525 147.164 131.51C143.662 129.561 140.029 127.186 136.392 124.271C128.978 118.316 123.876 111.961 120.459 106.827C123.519 102.899 123.7 97.5383 120.613 93.9834C117.055 89.8866 110.51 89.7454 105.99 93.6706C101.461 97.6038 100.674 104.113 104.232 108.21C107.372 111.825 112.842 112.351 117.193 109.725C121.967 113.563 128.039 119.465 133.192 127.945C135.449 131.687 137.191 135.371 138.552 138.894C132.836 144.467 128.089 150.676 124.293 157.334C122.461 156.755 120.648 156.051 118.706 155.051C114.866 153.064 111.877 150.673 109.611 148.489C111.508 143.534 109.89 138.001 105.609 135.58C100.898 132.922 94.7512 135.048 91.8776 140.334C89.0131 145.612 90.5039 152.05 95.2252 154.702C99.2955 156.991 104.422 155.719 107.592 151.936C110.637 153.266 113.937 154.982 117.317 157.251C119.12 158.442 120.774 159.701 122.326 160.99C119.116 167.308 116.747 173.969 115.202 180.822C111.508 181.106 107.528 181.17 103.286 180.878C93.5214 180.203 85.3848 177.88 79.3701 175.584C79.4089 170.501 76.2774 165.991 71.6843 165C66.4247 163.868 61.2421 167.768 60.107 173.709C58.9818 179.644 62.3259 185.376 67.5755 186.515C72.232 187.505 76.8046 184.581 78.5956 179.782C84.5398 179.95 93.0021 181.007 102.309 185.01C106.57 186.836 110.29 188.98 113.519 191.187C113.395 192.427 113.28 193.696 113.203 194.954C112.847 201.276 113.157 207.665 114.167 213.992C112.275 214.856 110.246 215.674 108.076 216.403C101.019 218.771 94.6181 219.535 89.628 219.691C87.6533 214.909 82.9688 211.968 78.3774 212.915C73.1696 213.983 70.0433 219.679 71.4011 225.632C72.7481 231.591 78.0742 235.547 83.2995 234.463C87.8801 233.522 90.8459 229.006 90.5766 223.882C95.2101 222.061 101.379 220.238 108.808 219.589C111.027 219.395 113.151 219.333 115.198 219.348C117.376 229.141 121.249 238.691 126.84 247.546C123.963 250.522 120.717 253.571 117.011 256.589C111.72 260.9 106.535 264.318 101.773 267.042C98.1319 263.034 92.4945 261.928 88.5405 264.679C84.1872 267.708 83.5254 274.231 87.0546 279.254C90.5928 284.269 96.9791 285.886 101.322 282.864C105.195 280.168 106.13 274.714 103.812 269.998C108.051 266.468 113.057 262.79 118.901 259.283C122.954 256.848 126.88 254.822 130.646 253.09C132.042 254.992 133.536 256.842 135.113 258.657C138.857 262.969 142.91 266.843 147.227 270.264C145.806 275.6 143.361 282.376 138.924 289.496C135.037 295.736 130.745 300.439 127.041 303.865C122.515 301.42 117.149 302.103 114.297 305.773C111.055 309.951 112.312 316.435 117.123 320.241C121.935 324.048 128.473 323.738 131.716 319.559C134.529 315.937 133.957 310.612 130.642 306.777C133.413 302.092 136.957 296.876 141.5 291.539C146.716 285.409 151.999 280.592 156.722 276.845C163.438 280.908 170.596 283.985 177.958 286.1C177.517 288.598 176.898 291.224 175.992 293.962C174.273 299.195 172.001 303.494 169.768 306.937C164.9 305.388 159.795 307.109 157.713 311.278C155.351 316.028 157.824 322.177 163.251 324.996C166.66 326.763 170.431 326.808 173.348 325.408C175.073 324.591 176.502 323.267 177.384 321.498C177.638 320.979 177.847 320.426 177.985 319.865C179.093 315.682 176.938 310.876 172.643 308.236C174.164 304.306 176.172 299.979 178.897 295.481C180.659 292.585 182.484 290.002 184.299 287.684C188.582 288.594 192.923 289.167 197.254 289.414C197.663 289.442 198.081 289.462 198.476 289.474C200.044 294.489 201.487 300.983 201.769 308.593C202.041 316.045 201.142 322.424 200.004 327.366C194.951 327.8 190.93 331.378 190.63 336.067C190.28 341.42 194.905 346.191 200.958 346.724C206.986 347.265 212.177 343.356 212.516 338.011C212.821 333.363 209.371 329.151 204.499 327.783C204.108 322.427 204.097 316.014 205.004 308.888C205.991 301.226 207.789 294.627 209.694 289.259C217.775 288.568 225.78 286.738 233.43 283.76C235.157 286.211 236.874 288.981 238.443 292.097C241.866 298.878 243.636 305.159 244.577 310.097C240.155 312.586 237.973 317.562 239.624 322.027C241.506 327.089 247.626 329.581 253.299 327.592C258.962 325.61 262.033 319.887 260.163 314.802C258.53 310.394 253.698 307.929 248.731 308.684C246.202 303.945 243.575 298.024 241.478 291.035C240.465 287.619 239.704 284.363 239.143 281.282C244.726 278.618 250.072 275.313 255.095 271.321C259.249 274.518 263.658 278.304 268.088 282.778C274.682 289.43 279.734 296.003 283.556 301.732C280.518 305.649 280.346 311.002 283.426 314.549C286.983 318.646 293.528 318.786 298.067 314.845C302.586 310.919 303.365 304.419 299.807 300.323C296.739 296.79 291.438 296.2 287.141 298.63C281.949 293.888 276.207 287.94 270.508 280.677C266.667 275.774 263.423 270.987 260.676 266.497C265.563 261.906 269.776 256.852 273.307 251.456C274.323 251.815 275.355 252.209 276.395 252.632C283.274 255.408 288.704 258.894 292.694 261.994C291.119 266.765 292.731 271.978 296.829 274.317C301.512 277.018 307.679 274.934 310.595 269.678C313.497 264.425 312.059 257.973 307.366 255.281C303.207 252.889 297.882 254.264 294.699 258.271C290.289 256.717 284.237 253.842 278.381 248.519C277.651 247.863 276.961 247.198 276.309 246.521C279.916 240.143 282.636 233.352 284.472 226.336C289.495 226.236 295.08 226.471 301.121 227.266C310.412 228.484 318.361 230.739 324.679 233.034C324.671 238.079 327.794 242.542 332.356 243.534C337.622 244.655 342.794 240.761 343.929 234.82C345.057 228.888 341.716 223.159 336.462 222.016C331.917 221.043 327.426 223.821 325.568 228.432C318.725 227.82 310.628 226.556 301.736 224.082C295.989 222.482 290.768 220.619 286.105 218.663C286.616 215.581 286.962 212.475 287.153 209.337C287.444 204.213 287.3 199.049 286.691 193.921C291.741 191.565 297.879 189.208 305.037 187.454C311.936 185.751 318.251 184.981 323.63 184.702C325.572 189.391 330.139 192.325 334.676 191.463C339.914 190.485 343.136 184.845 341.89 178.872C340.638 172.893 335.372 168.858 330.134 169.836C325.561 170.694 322.507 175.126 322.666 180.216C317.874 181.928 311.69 183.587 304.37 184.25C296.769 184.942 290.097 184.397 284.833 183.5C283.675 178.681 282.104 173.921 280.117 169.272C282.112 167.659 284.32 166.051 286.722 164.538C292.925 160.632 298.858 158.26 303.735 156.794C306.803 160.935 312.025 162.632 316.187 160.582C320.945 158.24 322.558 151.909 319.79 146.434C317.012 140.967 310.916 138.43 306.149 140.779C301.971 142.83 300.217 147.984 301.739 152.928C297.751 155.843 292.248 159.153 285.239 161.613C282.58 162.536 279.992 163.244 277.532 163.768C275.438 159.679 273.013 155.706 270.23 151.892C273.357 148.687 276.783 145.402 280.548 142.12C287.178 136.327 293.648 131.567 299.579 127.681C303.464 130.862 308.737 131.273 312.257 128.408C316.356 125.05 316.527 118.478 312.622 113.741C308.725 108.997 302.248 107.864 298.156 111.213Z" fill="#FFE1E1"/>
</svg>
